<?xml version="1.0" encoding="UTF-8"?>
<svg width="3e3px" height="3e3px" enable-background="new -211.4458008 -201.621582 3000 3000" version="1.1" viewBox="-211.4458008 -201.621582 3000 3000" xmlns="http://www.w3.org/2000/svg" xmlns:xlink="http://www.w3.org/1999/xlink">
 <path d="m2112.6 482.55l-923.92 979.95-1109.9-968.26s747.71 470.68 1095.6 469.54c347.98-1.1328 938.14-481.24 938.14-481.24z" fill="#5E6B69"/>
 <path d="m753.4 1956.7c-24.709 65.892-21.377 114.74 6.9775 138.96 25.484 21.773 44.698 52.083 27.849 59.66-50.247 22.602-41.709 45.241-37.714 63.233 3.9966 17.99 54.722 28.971 81.351 25.671 42.645-5.29 64.468-80.224 44.258-99.517-20.21-19.291 56.772-91.007 56.772-91.007l-40.997-82.94s-33.183-31.958-80.648-34.452c-24.214-1.2734-57.849 20.387-57.849 20.387z" fill="#C6AC7A"/>
 <path d="m1406.6 2147c15.712 75.244 3.4209 127.21-32.21 148.27-32.025 18.929-58.623 48.151-41.321 59.273 51.587 33.173 42.191 56.343 34.601 74.994-7.5898 18.652-73.705 24.574-100.94 17.577-93.016-23.897-54.758-102.29-29.001-119.48 25.754-17.192-79.356-75.228-46.182-184.89 3.4673-11.456 59.398-5.0254 59.398-5.0254s42.334-28.531 95.269-22.846c27.005 2.9004 60.388 32.131 60.388 32.131z" fill="#C6AC7A"/>
 <path d="m1868.2 2127.6c13.882 68.987 2.7998 116.68-29.056 136.07-28.631 17.424-52.435 44.285-37.013 54.451 46.001 30.327 29.507 63.297 22.696 80.423-6.8164 17.122-59.73 22.125-84.407 12.367-77.89-30.805-46.39-101.47-23.359-117.29 23.028-15.818-62.057-131.46-62.057-131.46l74.23-42.778s37.856-26.254 85.107-21.144c24.107 2.6045 53.857 29.356 53.857 29.356z" fill="#C6AC7A"/>
 <path d="m1477.3 1075.1c1.165 56.344 5.2988 113.54 1.8213 167.96-10.706 167.56-36.707 307.7-36.707 307.7s370.43 149.53 413.81 190.94c77.884 74.337 21.393 426.56 21.393 426.56l-618.16 25.297-513.95-214.06s39.777-451.23 81.451-763.03c5.5078-41.207 16.151-125.3 21.848-163.65l340.03-89.825 288.46 112.11z" fill="#615047"/>
 <path d="m2219.1 408.37s-758.44 389.14-772.7 354.78c-18.531-44.642-49.281-81.581-83.477-101.41-46.352-26.881-119.99-661.73-119.99-661.73l-111.11 1.2759-104.76 650.67s-68.199 30.632-88.905 54.841c-15.364 17.964-33.257 61.728-40.115 85.625-6.4062 22.32-898.03-338.56-898.03-338.56s86.903 54.31 204.93 130.41c125.85 81.139 641.91 446.14 638.84 468.65-8.8618 65.169-27.855 197.52-40.35 310.82-11.842 107.38-17.439 197.63-17.439 197.63l132.6-491.06 117.34-2.1621 3.8242 203.74s101.31 182.74 141.8 183.15c43.666 0.44629 116.26-184.44 116.26-184.44l22.391-192.28 71.657 2.4551 53.91 463.07s31.051-204.54 35.832-273.28c3.3936-48.78 2.4619-146.69 1.6699-195.58-0.25195-15.542 378.52-363.56 491.74-460.39 134.54-115.07 244.08-206.21 244.08-206.21zm-1041.4 548.84c-59.634 1.2227-109-47.92-110.27-109.76-1.2676-61.843 46.048-112.97 105.68-114.19 59.634-1.2227 109 47.92 110.27 109.76 1.2676 61.843-46.048 112.97-105.68 114.19z" fill="#FBC926"/>
 <path d="m1303.8 1109.8c-112.83-2.8701-366.23 116.54-415.02 145.26s-138.43 56.064-138.43 122.12c0 66.055-42.837 130.17 9.001 156.02 51.838 25.846 59.59 50.464 68.739 67.696 9.1479 17.229 6.0991 37.332 27.444 54.562 21.345 17.232 42.69 8.6172 42.69 8.6172s-42.69 74.67 15.248 74.67 30.493 40.205 30.493 40.205 64.038 2.8691 79.285-28.721c15.248-31.588 48.79 57.439 73.186 40.209s42.693 11.488 60.989 34.463c18.296 22.973 109.78 5.7461 137.22 0 27.445-5.748 64.033-51.699 79.283-31.594 15.25 20.104 24.398-11.484 24.398-11.484s12.193 57.436 39.639 66.051 30.496-2.8691 30.496-31.59c0-28.719 27.445 11.486 27.445 11.486l15.244-34.463s39.648 40.205 51.844 17.23c12.193-22.973-6.1035-51.691-6.1035-51.691s27.445 2.8711 27.445-22.975 33.547-25.846 33.547-25.846 14.553-35.583 14.553-52.813c0-17.232 22.035-41.962 25.086-27.601s9.1484-37.336 27.445-51.693c18.297-14.359 109.78-86.155 109.78-103.39 0-17.231 71.715-76.502 71.715-102.35s45.111-48.078 57.619-67.347c42.504-65.48-77.496-22.48-77.496-22.48s-79.311 6.2529-122 11.997c-42.691 5.7451-420.79-184.55-420.79-184.55z" fill="#231F20"/>
 <path d="m1032.4 420.79c-2.2866 64.617-67.85 195.29-90.72 259.9-22.87 64.616 20.583 260.62 59.463 230.47 38.879-30.153 34.305-142.16 29.731-73.231-4.5742 68.924-100.63 208.93-34.305 170.16 66.324-38.77 105.36-58.688 164.82-19.918 59.462 38.77 121.83 185.63 195.02 93.009 73.186-92.618 49.262-186.25 111.01-225.02 61.75-38.77-8.8711-95.767 34.582-130.23 43.455-34.463-75.455-99.873-52.584-112.8s78.008 96.01 78.008 96.01-27.711-146.91-41.434-151.22c-13.721-4.3076 61.752 12.923 61.752 12.923s-13.723-68.925-57.178-94.771c-43.453-25.846-89.193-43.077-107.49-88.309-18.297-45.231-36.594-155.08-180.68-150.77-246.15 7.3594-167.72 119.18-170 183.8z" fill="#BE2E26"/>
 <path d="m1049.1 598.85c-96.057-236.93-9.1489-361.85 146.37-361.85 155.52 0 216.51 155.08 193.64 254.16-22.871 99.08-17.568 26.099-30.496 123.49-9.1465 68.924-112.83 127.8-140.27 132.1-27.444 4.3081-100.63-57.438-132.65-91.9-32.019-34.462-36.592-56.001-36.592-56.001z" fill="#EFC7B0"/>
 <path d="m1218.4 637.62c91.482 0 179.92 22.976 240.9 66.053 44.785 31.634 48.793 83.284 30.496 109.13-18.297 25.848-30.496 54.567-21.348 112 9.1484 57.437 106.03 260.03 100.63 338.88-6.0957 89.027-164.67 396.31-216.51 390.57-51.84-5.7422-155.52-232.62-222.6-249.85-67.088-17.231-109.24-95.57-117.4-132.1-12.196-54.564 21.348-175.18 79.285-209.65 57.938-34.461 53.364-97.644 35.067-132.11-18.296-34.463-94.531-94.772-88.431-157.95 4.4268-45.85-12.2-66.053 12.196-91.899 24.396-25.847 115.88-43.078 167.72-43.078z" fill="#EFC7B0"/>
 <path d="m581.57 1045.7c-34.501-24.23-70.641-153.13-70.641-153.13s14.106-32.886 48.109-43.88c40.946-13.239 66.781-2.7705 66.781-2.7705s56.326 124.61 45.835 166.49c-2.9971 11.965-23.631 24.884-38.458 30.905-13.896 5.6421-41.053 9.8169-51.627 2.3906z" fill="#FBC926"/>
 <path d="m582.17 1047.9c-34.501-24.23-70.641-153.13-70.641-153.13s24.343 5.4507 66.084-10.806c35.452-13.808 48.806-35.844 48.806-35.844s56.326 124.61 45.835 166.48c-2.9971 11.965-23.631 24.885-38.458 30.905-13.896 5.6421-41.053 9.8169-51.627 2.3911z" fill="#FFE89B"/>
 <path d="m1151.3 706.54c-18.296-20.103-79.984-48.162-112.83-17.231-42.692 40.207-45.741 209.65-48.792 255.6-1.7646 26.578-3.0493 106.26-3.0493 106.26s-82.333 8.6147-131.12 5.7446c-21.521-1.2666-128.07-5.7446-128.07-5.7446s-54.892-37.336-57.94-60.31c-3.0488-22.974 0.95117-16.078-8.1973-41.925-9.1479-25.847-19.625-64.167-29.625-51.167-10.506 13.658 2.1807 33.939 2.1807 54.041 0 20.104-7.0483 21.82-7.0483 21.82s-21.347-34.462-33.544-51.693-33.544-31.591-33.544-17.231c0 14.361 9.1479 34.463 15.248 48.823s18.294 37.333 3.0483 37.333c-15.245 0-32.444-60.078-50.74-71.565-8.0786-5.0718-9.4209 23.38-9.4209 23.38s-2.0088-5.1743-9.48-8.1689c-9.9556-3.9907-20.732-0.66309-16.84 3.918 12.199 14.357 19.394 55.309 22.444 63.925 3.0513 8.6152 51.843 48.821 76.237 60.308s88.431 34.46 112.83 48.82c24.396 14.36 149.42 45.95 201.26 51.693 51.841 5.7446 115.88 17.231 152.47-17.23 36.593-34.463 45.741-123.49 64.037-178.05 12.89-38.438 21.481-61.735 33.542-103.39 9.1484-31.591 12.199-89.029 12.199-109.13-1e-7 -20.103-15.248-48.823-15.248-48.823z" fill="#EFC7B0"/>
 <path d="m1631.2 791.62c10.291 3.231-89.195-77.54-102.92-85.079s-52.602-33.385-75.473-44.154c-22.869-10.77-50.314-17.231-67.467-7.5391s-48.027 30.154-42.311 57.078c5.7168 26.924 24.014 65.694 35.449 78.617s13.723 16.515 13.723 16.515 213.84 100.87 245.86 112.72l-6.8613-128.16z" fill="#EBC5AE"/>
 <path d="m1437.9 1324c-125.03 37.333-158.57 45.948-204.31 54.564-45.742 8.6152 109.77-103.39 70.134-143.59-39.641-40.206-234.31-116.69-277.49-63.18-57.938 71.796-85.382 336.01-64.037 404.93 21.345 68.926 76.952 119.84 134.17 140.72 121.98 44.514 411.67-112 481.8-152.21l-140.27-241.23z" fill="#967F72"/>
 <path d="m1578.2 1565.2c70.135-40.206 64.033-25.846 76.232-14.359s6.0977 71.797 18.297 129.23c12.199 57.434 21.342 114.88 27.443 157.95 6.1035 43.076 21.344 83.281 27.445 126.36s97.584 212.52 143.32 264.21c45.742 51.693 42.691 112 60.986 137.85 18.297 25.846 18.293 40.209 33.543 66.055s42.695 45.947 48.791 74.666c6.0977 28.721 36.594 100.52 91.482 94.771 54.889-5.7422 79.283-43.076 79.283-94.771 0-51.693-39.645-106.26-27.445-123.49 12.199-17.23 21.348-5.7422 57.939-48.82 36.594-43.078 73.188-103.38 91.482-137.85 18.297-34.463 42.695-94.771 3.0527-103.39-39.645-8.6172-67.088-8.6172-106.73 14.357-24.502 14.199-85.385 91.898-100.63 112s-12.199 45.947-45.742 8.6152c-33.541-37.33-45.74-114.87-54.889-152.21-9.1465-37.336-24.389-186.67-39.639-244.11-15.25-57.434-21.348-97.639-21.348-117.74 0-20.104-10.67-57.439-10.67-77.539 0-20.102-19.82-229.75-41.168-272.83s-26.877-86.478-94.533-89.028c-76.236-2.873-231.75 11.49-356.78 48.823l140.27 241.23z" fill="#EFC7B0"/>
 <path d="m1928.6 1270.4c-140-12-273.87-57.606-396.48-162.26-62.348-53.213-58.574-151.51-63.639-183.32-9.1484-57.435 3.0508-86.154 21.348-112 18.297-25.847 14.289-77.497-30.496-109.13-35.168-24.841-123.63-49.611-123.63-49.611s-41.033 86.944-111.17 88.381c-64.312 1.3164-134-84.403-134-84.403s-31.679 9.7339-39.811 18.351c-9.8066 10.391-17.983 12.662-17.983 12.662s55.863 44.059 75.922 87.854c26.681 58.252 22.87 162.26 22.87 162.26s-2.4658 69.28-39.642 123.49c-15.822 23.071-23.904 42.321-36.041 52.357-18.055 14.929-40.709 46.512-40.709 46.512s-136.41 110.83-243.76 147.68c-201.02 69.007-9.002 51.574-99.01 81.009-106.26 34.746 33.003 69.007 33.003 69.007l-108.01 60.006s-6.0474 37.44 90.009 36.004c6.2271-0.092773 16.306 57.852 75.008 60.006 42.774 1.5684 52.67 60.448 126.01 33.003 22.984-8.6035 41.511 36.385 72.007 45 28.908 8.168 57.553 60.524 84.008 51.005 53.92-19.402 12.266-109.62 45.004-117.01 42.666-9.6328 22.097 50.713 60.834 42.875 38.217-7.7305-27.445-155.08 258.44-79.693 62.75 16.548-4.9922-231.24 111.65-136.47 28.119 22.847 116.88 71.602 179.92 39.489 38.518-19.623-24.65-61.888 16.365-91.052 16.791-11.938 60.758 19.216 80 12 32-12-4.8203-81.492 8-92 38.625-31.66 48.592 41.248 75 15 31.492-31.299 59.12-66.132 49-67z" fill="#4D4D4F"/>
 <path d="m1337.3 899.28s17.094-89.039 19.744-118.72c2.6543-29.749-21.368-126.5-21.368-126.5s88.467 24.77 123.63 49.611c44.785 31.634 48.793 83.284 30.496 109.13-18.297 25.848-21.348 112-21.348 112s-28.473 74.598-156.28 78.975c-125.79 4.3086-180.68-64.616-180.68-64.616s3.8105-104.01-22.87-162.26c-20.059-43.795-75.922-87.854-75.922-87.854s8.1768-2.2715 17.983-12.662c8.1323-8.6167 38.237-18.351 38.237-18.351s103.74 126.38 147.65 146.34c66 30 100.72 94.902 100.72 94.902z" fill="#DDC025"/>
 <path d="m1752 824.29c-15.246-17.23-100.82-82.189-131.12-106.26-38.881-30.873-76.232-63.18-88.432-77.54-11.006-12.957-64.199-70.309-92.416-83.514 6.9102-1.0449 13.965-4.7344 16.18-14.13 2.0371-8.6245-4.5088-13.585-6.6797-14.967-11-7-20.52-7.0732-31.057-8.7266-13.723-2.1533-30.875 3.231-30.875 10.77 0 1.314 0.50977 2.5591 1.3125 3.7271-3.5371-1.4346-7.2266-2.251-10.461-1.5737-10.291 2.1543-18.297 16.154-12.578 19.385 0.89648 0.50928 2.0078 1.2153 3.2148 2.0234-4.2559-2.2573-8.4336-3.5234-11.221-2.0234-7.541 4.0591-14.082 22.445-12.797 27.26-7.2383-2.0171-9.5801 5.6602-12.359 8.2788-6.8613 6.4619-6.8613 17.231-2.2871 22.616s12.578 7.5381 12.578 16.154 5.7168 20.461 5.7168 25.847c0 5.3848-5.7168 20.462-2.2871 24.77 3.4316 4.3081 33.162 3.2305 34.307-8.6167l0.91016-2.0225c6.1484-6.7397 42.893 12.107 61.984 17.101 20.582 5.3853 32.018 8.6147 41.166 8.6147s65.182 71.08 74.33 87.233c9.1465 16.154 52.602 89.386 62.893 92.618l16.01 48.462c28.941 10.708 46.889 22.258 71.283 22.258 24.393 0 57.939-11.488 64.037-40.206s-6.1016-60.31-21.348-77.541z" fill="#EFC7B0"/>
 <path d="m1636.1 1157.4s-72.264 22.453-174.55 38.368c-45.168 7.0298-100.77-0.14111-154.02 1.8384-67.63 2.5137-132.15 8.0312-190.73-1.769-88.022-14.722-102.01-34.847-102.01-34.847s6.8613-36.617 38.88-62.463c16.787-13.55 45.315-46.385 45.315-46.385s80.62 51.46 208.55 44.231c114.35-6.4619 183.73-39.487 183.73-39.487s26.68 41.64 50.314 63.18c18.912 17.235 94.527 37.333 94.527 37.333z" fill="#C49A6C"/>
 <path d="m1024.7 1140.2c5.5884 2.6509 11.229 5.189 16.864 7.7319 5.6348 2.5439 11.292 5.0361 16.972 7.4717 11.356 4.8799 22.826 9.4829 34.357 13.879 11.547 4.3408 23.222 8.3887 35.104 11.471 11.946 2.9106 24.043 5.6445 36.103 8.2261 48.255 10.422 97.288 17.478 146.59 19.122 6.1562 0.20703 12.338 0.36621 18.455 0.3125 6.1426-0.050781 12.283-0.28418 18.414-0.67773 12.266-0.7959 24.488-2.2754 36.637-4.2363 24.312-3.9316 48.236-10.091 71.973-16.892 11.867-3.4175 23.686-7.0376 35.512-10.664 11.842-3.5972 23.623-7.2539 35.342-11.193 23.463-7.751 46.674-16.318 69.443-25.989-11.166 5.3286-22.559 10.18-34.035 14.811-11.479 4.6348-23.049 9.04-34.699 13.236-11.656 4.1646-23.443 8.0249-35.213 11.8-11.768 3.8081-23.545 7.6147-35.395 11.226-23.676 7.2646-47.736 13.562-72.248 17.746-12.248 2.1035-24.611 3.6172-37.031 4.4551-6.209 0.41504-12.432 0.66797-18.656 0.73535-6.252 0.070312-12.438-0.074219-18.643-0.26562-24.808-0.78906-49.548-3.0771-74.12-6.4365-24.574-3.376-48.954-8.0059-73.131-13.418-6.0425-1.3652-12.067-2.8022-18.083-4.2666l-9.0151-2.2266c-2.9956-0.75537-6.0078-1.4819-9.0205-2.3257-12.004-3.3721-23.655-7.6772-35.167-12.268-11.52-4.5781-22.818-9.667-34.037-14.896-11.212-5.2441-22.331-10.686-33.27-16.467z" fill="#4D4D4F"/>
 <path d="m1038.5 1117.2c5.0205 2.2446 10.067 4.4297 15.118 6.6016 5.042 2.1919 10.097 4.353 15.164 6.4824 10.132 4.2632 20.325 8.3789 30.562 12.358 10.23 3.9941 20.528 7.8115 30.927 11.271 5.1963 1.7368 10.418 3.3779 15.681 4.834 5.2871 1.4722 10.585 2.8901 15.9 4.2314 21.253 5.3887 42.792 9.5801 64.524 12.411 21.719 2.9136 43.602 4.5903 65.518 5.2612 21.918 0.69971 43.871 0.68359 65.656-1.3164 10.891-0.98975 21.738-2.4053 32.5-4.356 10.762-1.938 21.436-4.3828 32.025-7.1895 21.182-5.5972 42.072-12.518 62.984-19.236 10.443-3.3887 20.826-6.9668 31.123-10.776 5.1426-1.9224 10.254-3.9297 15.295-6.0996 2.5215-1.0869 5.0215-2.2173 7.5039-3.3896 2.4688-1.1958 4.9453-2.4023 7.2461-3.9087-2.209 1.645-4.6172 3.0049-7.0176 4.3521-2.4082 1.3408-4.8691 2.5811-7.3477 3.7832-4.959 2.4043-9.9941 4.6484-15.062 6.8086-10.131 4.3394-20.443 8.2285-30.805 11.967-5.1777 1.8848-10.393 3.6509-15.607 5.3975l-15.674 5.1919c-10.473 3.3979-20.996 6.6968-31.65 9.5889-21.281 5.8516-43.096 10.091-65.125 12.113-22.031 2.0762-44.156 2.1392-66.188 1.5068-22.047-0.74414-44.077-2.4849-65.946-5.5015-21.857-3.0732-43.552-7.4023-64.857-13.139-5.3267-1.4287-10.631-2.9326-15.916-4.4883-5.311-1.5659-10.555-3.313-15.758-5.1504-10.396-3.709-20.63-7.7964-30.792-12.037-10.151-4.2671-20.201-8.7583-30.204-13.342-5-2.2954-9.9854-4.6216-14.956-6.978-4.9595-2.3794-9.9028-4.793-14.822-7.252z" fill="#4D4D4F"/>
 <path d="m1056.8 1098.5c4.644 1.959 9.3228 3.832 14 5.7046 4.6724 1.8828 9.3604 3.7261 14.062 5.5303 9.3989 3.6206 18.876 7.0269 28.379 10.328 9.5054 3.2939 19.093 6.335 28.746 9.0757 4.8232 1.3706 9.687 2.5874 14.572 3.8042 4.8809 1.209 9.7715 2.3716 14.673 3.4795 19.6 4.4629 39.386 8.0571 59.306 10.689 19.912 2.6904 39.941 4.5039 60.015 5.5444 20.072 1.0137 40.197 1.6436 60.232 0.84619 10.02-0.41309 20.021-1.124 29.969-2.3037 9.9492-1.1743 19.842-2.8057 29.648-4.874 19.633-4.0952 38.902-9.9121 58.051-16.124 19.324-5.5327 37.359-14.58 54.906-24.521-8.3477 5.6641-17.059 10.791-25.99 15.537-4.4707 2.3687-9.0312 4.5879-13.725 6.5454-4.7031 2.0044-9.5156 3.5366-14.266 5.2144-19.076 6.5439-38.375 12.696-58.176 17.066-19.789 4.3779-40.004 6.896-60.24 7.7334-10.117 0.43262-20.246 0.51221-30.354 0.34521-10.105-0.17529-20.203-0.48877-30.293-1.0508-20.179-1.1108-40.328-2.9775-60.354-5.7676-20.018-2.8428-39.913-6.5889-59.562-11.32-4.9111-1.1865-9.8086-2.4272-14.691-3.7139-4.8779-1.2817-9.7686-2.606-14.611-4.0898-9.6899-2.9302-19.215-6.3203-28.669-9.8633-9.4551-3.5449-18.782-7.4067-28.062-11.357-9.2769-3.96-18.487-8.0718-27.566-12.458z" fill="#4D4D4F"/>
 <path d="m1383 1126.6c0 44.037-39.42 79.734-88.051 79.734-48.632 0-88.052-35.697-88.052-79.734s39.419-79.736 88.052-79.736c48.631 0 88.051 35.699 88.051 79.736z" fill="#E6E7E8"/>
 <path d="m1087.3 1067s-35.069 10.05 137.98 72.513c59.834 21.598 27.446-28.001 27.446-28.001l-165.43-44.512z" fill="#E6E7E8"/>
 <path d="m1500.3 1068.4s33.725 22.975-85.203 54.563c-61.674 16.381-57.355-18.668-57.355-18.668l142.56-35.896z" fill="#E6E7E8"/>
 <polygon points="1110.1 1112.9 1087.5 1105.2 1103.7 1062.7 1126.3 1070.3" fill="#926D5A"/>
 <polygon points="1150.5 1126.8 1127.8 1119.5 1143.3 1076.7 1166 1084" fill="#926D5A"/>
 <polygon points="1193.8 1140.7 1170.8 1134.2 1184.6 1090.9 1207.6 1097.4" fill="#926D5A"/>
 <path d="m1304.1 1163.2c-6.7539 3.7549-15.494 4.4414-23.878 2.1973-8.3809-2.2466-16.394-7.6533-21.74-15.497-2.6426-3.9185-4.6387-8.3984-5.6406-13.144-0.23438-1.1821-0.47949-2.377-0.61914-3.5791l-0.11914-0.90479-0.027344-0.22754-0.0058594-0.056641v-0.46729l-0.0097656-0.072754-0.027344-0.2998-0.099609-1.1914c-0.017578-3.0195 0.16309-5.2861 0.5293-7.7734 1.5527-9.8384 7.0996-18.968 14.723-25.43 7.6133-6.5229 17.325-10.533 27.154-11.539 4.8574-0.4668 9.9316-0.38428 14.488 0.52832 4.8535 0.83887 9.3457 2.3887 13.521 4.5542 8.3008 4.3027 14.896 11.093 18.143 18.883 3.2598 7.7412 3.1328 16.42-0.94141 22.789-4.0137-6.3433-8.7148-10.286-13.516-12.716-4.7754-2.4243-9.4824-3.4502-13.799-3.5874-2.125-0.085938-4.2773 0.09082-6.1309 0.35547-2.1543 0.36963-3.8711 0.70898-5.6465 1.3701-3.4316 1.2168-6.3418 2.8994-8.7207 4.9082-2.3809 2.0254-4.1421 4.272-5.4507 6.8579-0.33008 0.62256-0.59766 1.5054-0.82227 1.6528l-0.16797 1.1865-0.044922 0.29688-0.013672 0.073242c-0.0078125 0.38965 0.0029297-0.48535 0-0.39111l-0.0058594 0.01709-0.021484 0.070801-0.080078 0.28467c-0.13281 0.38428-0.19824 0.77002-0.30469 1.166-0.26172 1.5659-0.44922 3.2764-0.28027 5.1289 0.5498 7.4502 6.1294 17.262 19.555 24.557z" fill="#C0C2C4"/>
 <path d="m1300.7 1631.3c14.32 38.004 19.822 68.924 45.74 91.898 31.6 28.008 41.168 51.693 137.22 34.461 96.055-17.232 150.95-64.617 164.67-129.23 13.723-64.617 41.168-292.93 41.168-379.08 0-86.156-9.1484-193.85-27.445-254.16-18.297-60.31-36.592-90.464-82.334-116.31-45.74-25.846-74.686-15.833-86.906 4.3086-36.594 60.31-155.52 310.16-178.39 379.08-21.873 65.915-10.672 142.16-28.968 202.47-20.914 68.938-1.5273 122.06 15.246 166.57z" fill="#EFC7B0"/>
 <path d="m1611.4 1480.2c-48.987 177.29-129.01 300.03-216.02 279.03-58.793-14.192-60.276-241.77-15.001-420.04 48.005-189.02 133.54-286.03 194.02-286.03s100.01 199.02 37.004 427.04z" fill="#E9C3AD"/>
 <path d="m828.06 1710.3c-15.246 14.361-24.394 22.977-3.0493 66.055 21.346 43.078 57.938 94.771 100.63 109.13s54.889 28.721 91.481 43.078c36.593 14.357 60.989 17.23 60.989 34.463 0 17.23-12.199 45.951 15.246 60.309 27.444 14.357 48.79 43.078 73.186 34.463 24.396-8.6172 57.94-20.102 70.137-66.053s33.541-71.793 57.937-129.23c24.396-57.439 64.039-100.51 76.236-120.62 12.197-20.104 33.539-41.643 64.035-93.336s97.584-198.16 106.73-246.98 60.99-180.93 64.037-229.75c3.0469-48.82 21.342-74.667 30.49-117.74 9.1484-43.078-57.939-109.13-82.334-140.72-24.393-31.588-30.49-40.207-60.984-30.154-30.496 10.051-73.188 58.874-106.73 130.67-33.545 71.795-88.436 186.67-100.63 281.44-12.197 94.771-30.495 157.95-45.74 241.24-15.246 83.281-21.344 132.1-42.69 186.67-21.347 54.564-3.0513 12.926-15.248 53.131-12.197 40.205-21.348 80.41-42.693 63.178-21.345-17.23-112.83-40.203-131.12-57.436-18.296-17.23-85.383-48.82-109.78-60.309s-70.136-11.488-70.136-11.488z" fill="#EFC7B0"/>
 <path d="m1540.1 990.85c-24.395-31.589-46.975-34.462-79.283-34.462-32.02 0-60.986 17.23-83.857 57.438-16.143 28.379-29.354 64.916-45.562 104.67 206.04 95.277 153.43 215.89 153.43 215.89s22.871-73.231-170.72-170.37c-3.709 10.56-7.2266 21.206-10.523 31.864 110.35 57.737 147.81 90.407 159.52 140.66 5.1992 22.316-7.875 91.081-7.875 91.081 17.023-35.081-7.8262-117.58-164.64-180.06-2.812 11.886-5.23 23.629-7.1646 35.112 240.52 93.442 147.66 217.56 147.66 217.56s41.023-87.166-154.89-171.73c-1.8896 12.24-3.875 23.979-5.9326 35.379 216.9 92.091 128.8 208.51 128.8 208.51s39.111-77.445-138.52-158.79c-1.6572 7.9561-3.3281 15.853-5.0117 23.708 200.13 92.489 105.23 215.55 105.23 215.55s47.77-80.48-115.85-161.46c-2.9697 14.223-5.8955 28.796-8.7305 43.985 171.17 90.779 78.527 199.3 78.527 199.3s48.119-67.537-89.455-144.66c-19.225 76.525-24.203 87.83-41.928 133.14-21.347 54.564-29.997 73.176-57.938 76.1-27.444 2.873-89.959-17.227-108.25-34.457-18.296-17.232-103.68-40.205-128.07-51.693-24.396-11.49-70.563-11.082-88.433 1.4336-28.875 20.223-33.542 47.387-12.197 90.465s62.512 96.209 105.2 110.57c42.693 14.359 54.89 28.721 91.482 43.078s64.988 17.232 64.988 34.461c0 17.232-8.7412 21.141 11.246 48.311 18.354 24.949 89.957 63.693 114.35 55.078 24.396-8.6172 70.516-23.686 93.006-66.053 19.822-37.34 42.691-101.95 67.085-159.39 24.396-57.439 32.021-74.668 44.221-94.771 12.195-20.104 24.389-45.951 54.885-97.645s97.584-198.16 106.73-246.98c9.1484-48.821 54.322-151.55 64.037-199.59 6.0977-30.155 12.195-53.128 21.342-96.206 9.1484-43.078-62.514-113.44-86.906-145.03z" fill="#231F20"/>
 <path d="m777.74 1746.1c-14.399 6.25-10.671 15.797 10.674 58.875s62.512 96.209 105.2 110.57c42.693 14.359 54.89 28.721 91.482 43.078s60.988 17.232 60.988 34.461c0 17.232-1.5249 35.898 24.394 60.311 22.198 20.908 80.809 51.693 105.2 43.078 24.396-8.6172 43.237 0.12695 54.889-45.951 7.625-30.154 3.2441-50.477-56.799-94.283-18.375-13.402-76.531-29.621-76.531-29.621s-81.977-66.863-151.79-113.02c-71.663-47.387-120.43-88.023-167.72-67.49z" fill="#756246"/>
 <path d="m2335.4 2083c-2.2852-1.6738-4.6543-3.3203-7.0664-4.9434-32.031-18.098-104.61-13.701-140.24 6.9492-24.5 14.199-71.662 78.975-86.906 99.08-15.248 20.104-30.496 40.205-30.496 40.205s-40.059-71.695-56.104-120.04c-147.47 83.494-92.936 155.22-92.936 155.22s-102.36-109.85 80.027-207.02c-2.0547-12.6-4.293-28.09-6.6777-45.129-177.45 88.338-117.95 170.3-117.95 170.3s-111.26-121.66 110.82-221.6c-1.1523-8.2168-1.9004-25.072-3.0898-33.25-200.02 90.609-138.61 182.7-138.61 182.7s-117.3-123.48 128.82-224.17c-2.2383-13.156-2.502-25.225-4.7773-35.59-223.14 93.898-158.35 173.6-158.35 173.6s-91.482-122.77 144.7-214.51c2.2031-0.85352-1.6523-1.6426 0.51758-2.4648-3.002-13.041-2.4219-24.865-4.3203-35.426-4.5605 1.6973 3.1602-0.41602-1.6914 1.1152-189.9 59.947-174.21 171.84-175.8 159.74-14.102-63.896-18.676-138.56 160.34-208.48 9.7012-3.791-2.1289-2.5195 7.0273-5.3379-0.089844-9.1211-1.25-21.59-3.6133-34.383-12.102 3.4922-4.3164 3.541-17.285 8.9609-225.29 94.127-174.29 171.04-174.29 171.04s-71.662-145.03 154.26-215.48c18.873-5.8848 21.869-12.75 38.139-16.949 2.0801-25.455-6.8887-81.739-14.004-125.12-14.407-87.834-26.877-86.478-94.533-89.027-76.236-2.873-181.44 254.16-181.44 280 0 16.248 25.918 106.26 32.02 149.34 6.1016 43.078 21.342 83.283 27.445 126.36 6.0996 43.078 97.582 212.52 143.32 264.21 45.742 51.693 42.691 112 60.988 137.85 18.295 25.848 18.291 40.209 33.541 66.057 15.25 25.846 42.695 45.947 48.791 74.666 6.0977 28.721 48.793 159.39 103.68 153.65 54.891-5.7422 106.73-48.824 118.93-103.39 11.311-50.582-7.627-107.7 4.5742-124.93 12.199-17.232 7.6211-24.408 44.213-67.486s54.889-94.771 73.186-129.23 23.986-126.44-3.0469-155.08c-0.65234-0.69336-1.3711-1.3535-2.1133-2.0059z" fill="#231F20"/>
 <path d="m2064.6 2550.3c-17.127 50.693-19.82 120.62 35.068 114.88 54.891-5.7422 106.73-48.824 118.93-103.39 11.311-50.582-7.627-107.7 4.5742-124.93 12.199-17.232 7.6211-24.408 44.213-67.486s54.889-94.771 73.186-129.23 31.34-119.95-1.5234-129.23c-45.74-12.924-99.861 36.49-164.67 161.54-35.855 69.189-66.324 180.93-66.324 180.93s-27.443 49.539-43.453 96.924z" fill="#756246"/>
 <path d="m1180.7 1812.4s-16.354-9.6699-21.803-11.459c-5.9873-1.959-23.949-3.541-23.949-3.541s17.768-16.273 23.69-24.568c6.8369-9.5801 22.777-46.932 22.777-46.932s15.817 0.4082 21.09 1.9824c7.3101 2.1777 29.238 13.02 29.238 13.02l-51.043 71.498z" fill="#D3D1D3"/>
 <path d="m2037.1 2235.8s12.768-9.2168 18.297-10.77c6.0762-1.7031 14.865-5.3848 14.865-5.3848s-10.001-26.723-14.865-35.539c-10.887-19.73-17.807-31.664-17.807-31.664s-10.822-0.27148-16.164 1.0762c-7.4102 1.8633-20.691 11.758-20.691 11.758l36.365 70.523z" fill="#D3D1D3"/>
 <path d="m1184.1 700.08c2.9722 0.6665 5.9727 0.84229 8.9639 0.97168 2.9902 0.13184 5.9824 0.099609 8.9697 0.033691 5.9761-0.1416 11.945-0.52393 17.917-1.0093 5.9653-0.48584 11.897-1.0903 17.785-1.957 1.4707-0.22559 2.9414-0.45752 4.4014-0.73389 1.4678-0.25098 2.9258-0.54736 4.3711-0.89941 1.4521-0.32959 2.8936-0.70947 4.3174-1.1655 0.71387-0.2207 1.4229-0.46436 2.1191-0.74561 0.70117-0.26953 1.3936-0.56982 2.0547-0.95605-1.0137 1.1724-2.3242 2.0542-3.6338 2.8789-1.3291 0.8042-2.7178 1.5049-4.1318 2.1416-2.8438 1.2334-5.7812 2.2402-8.7676 3.0054-5.9707 1.5708-12.082 2.3999-18.181 2.833-6.0942 0.42627-12.237 0.49658-18.36-0.029785-3.0601-0.26611-6.1123-0.70898-9.1245-1.3486-1.5015-0.34766-3.001-0.70264-4.4634-1.1987-1.459-0.48779-2.9189-1.0264-4.2363-1.8203z" fill="#231F20"/>
 <path d="m1229.8 601c2.7905 6.1143 5.4136 12.262 8.0962 18.363 1.373 3.0361 2.6826 6.0928 4.1289 9.0728 1.418 2.9858 2.8613 5.9712 4.5527 8.7104 0.8418 1.3779 1.6816 2.6797 2.7441 3.7012 0.41211 0.41016 0.81445 0.9502 1.0645 1.6265 0.25586 0.67627 0.28516 1.4653 0.13867 2.1196-0.3125 1.3262-1.0098 2.1709-1.6758 2.8799-1.373 1.3877-2.8594 2.3311-4.3584 3.2207-1.499 0.88232-3.04 1.6299-4.5977 2.3164-6.2236 2.7373-12.665 4.7256-19.241 6.1445 6.1338-2.7305 12.274-5.3901 18.098-8.4771 1.4434-0.7876 2.8613-1.6055 4.2148-2.4702 1.3359-0.86914 2.6426-1.8291 3.5723-2.877 0.45117-0.51318 0.79688-1.0659 0.8418-1.3906 0.025391-0.16211 0.014648-0.24023-0.025391-0.34863-0.046875-0.10742-0.14062-0.26465-0.3252-0.43701-1.3662-1.2925-2.3789-2.8193-3.292-4.2778-3.4883-5.978-5.9668-12.226-8.2451-18.557-2.2476-6.3335-4.2041-12.76-5.6909-19.32z" fill="#231F20"/>
 <path d="m1193.4 598.99c-8.6514-5.752-17.419-11.282-26.315-16.547-8.9146-5.2178-17.993-10.174-27.394-14.17-4.7017-1.959-9.519-3.6562-14.359-4.6333-4.7979-0.88916-9.8989-0.96436-14.769-0.2876-4.8989 0.64307-9.6782 2.124-14.073 4.3818-2.2031 1.1191-4.2891 2.459-6.2788 3.9199-0.99023 0.73584-1.9497 1.5146-2.8633 2.3359-0.89453 0.80273-1.8257 1.7231-2.5142 2.5322l0.42285-1.3403c0.048828 0.87354 0.20898 1.9751 0.39844 2.9692 0.19336 1.019 0.43555 2.0361 0.71924 3.043 0.56689 2.0137 1.2642 4.0034 2.1323 5.9229 1.7285 3.8442 4.0732 7.4175 6.877 10.621 2.8267 3.1846 6.1338 5.981 9.7671 8.332 3.6353 2.353 7.5767 4.2871 11.682 5.874-4.2866-0.99365-8.5005-2.4668-12.465-4.5225-3.9639-2.0483-7.6875-4.6636-10.912-7.8486-3.2515-3.1572-5.9746-6.8857-8.061-10.953-1.0405-2.0352-1.9453-4.1484-2.6396-6.3408-0.34717-1.0962-0.6499-2.208-0.90234-3.3389-0.25049-1.1562-0.45898-2.2236-0.57715-3.5405l-0.065918-0.73291 0.48877-0.60791c0.96045-1.1938 1.8682-2.1118 2.8716-3.0737 0.99072-0.94043 2.0244-1.8257 3.0928-2.666 2.1338-1.6855 4.4434-3.1372 6.8462-4.4023 4.811-2.5269 10.071-4.2109 15.453-4.9619 5.4077-0.68896 10.816-0.57422 16.21 0.46875 5.3379 1.0903 10.3 3.0435 15.11 5.1943 4.8071 2.1665 9.4487 4.6133 13.962 7.2549 4.52 2.627 8.9438 5.3945 13.258 8.3188 4.3306 2.8965 8.563 5.9292 12.72 9.0562 4.1548 3.1284 8.2314 6.3604 12.178 9.7422z" fill="#231F20"/>
 <path d="m1246.5 590.77c2.8057-4.2021 5.8281-8.2627 8.9824-12.221 3.1582-3.9541 6.4482-7.8135 9.915-11.522 3.4443-3.73 7.0742-7.3032 10.907-10.68 3.8223-3.3867 7.877-6.5557 12.281-9.2983 4.4004-2.7134 9.1582-5.1445 14.539-6.1714 0.68164-0.12598 1.3281-0.22559 2.0566-0.30664 0.62891-0.061523 1.2441-0.12744 1.9258-0.17432 1.3281-0.09668 2.627-0.15381 3.9473-0.15234 2.6289 4.883e-4 5.2676 0.19189 7.877 0.60205 5.2148 0.84766 10.289 2.5947 14.928 5.1191 2.3164 1.2686 4.5391 2.7109 6.6035 4.3633 1.0312 0.82715 2.0254 1.7012 2.9824 2.623 0.96875 0.94434 1.8418 1.8447 2.7715 3.0137l0.48828 0.61523-0.072266 0.73682c-0.12695 1.3179-0.3418 2.3843-0.59961 3.5396-0.25977 1.1294-0.57031 2.2402-0.92383 3.3345-0.69922 2.1929-1.625 4.2993-2.6777 6.3286-2.1172 4.0537-4.8594 7.7725-8.1328 10.909-1.6289 1.5752-3.3711 3.0225-5.207 4.3257-1.8438 1.2886-3.7715 2.4429-5.7598 3.459-3.9785 2.0327-8.2051 3.4785-12.5 4.4438 4.1152-1.5674 8.0664-3.4829 11.715-5.8154 3.6445-2.335 6.9707-5.1084 9.8145-8.2783 2.8203-3.1885 5.1934-6.7422 6.9414-10.578 0.88086-1.9141 1.582-3.9014 2.1719-5.9082 0.29102-1.0049 0.53906-2.0205 0.73828-3.0381 0.19531-0.99316 0.36328-2.0947 0.41602-2.9663l0.41797 1.3516c-0.66211-0.78662-1.5605-1.6899-2.4219-2.4761-0.88086-0.80469-1.8047-1.5713-2.7598-2.2954-1.9082-1.4536-3.9277-2.7686-6.0488-3.8955-4.2363-2.2612-8.8516-3.7832-13.592-4.5366-4.709-0.77734-9.6875-0.82227-14.32-0.12012-4.5625 0.85352-9.0449 2.8838-13.26 5.3481-8.437 5.0273-16.088 11.572-23.365 18.439-7.2441 6.9307-14.164 14.253-20.779 21.882z" fill="#231F20"/>
 <path d="m1193.4 598.99s-45.788-35.165-70.771-37.95c-25.894-2.8901-39.362 14.251-39.362 14.251s1.4629 26.791 33.566 36.653c48.62 14.935 76.567-12.954 76.567-12.954z" fill="#fff"/>
 <path d="m1246.5 590.77s33.861-45.404 58.861-48.05c25.912-2.7407 39.27 14.476 39.27 14.476s-1.6309 26.783-33.799 36.462c-48.714 14.659-64.332-2.8877-64.332-2.8877z" fill="#fff"/>
 <defs>
  <path id="f" d="m1193.4 598.99s-45.788-35.165-70.771-37.95c-25.894-2.8901-39.362 14.251-39.362 14.251s1.4629 26.791 33.566 36.653c48.62 14.935 76.567-12.954 76.567-12.954z"/>
 </defs>
 <clipPath id="g">
  <use overflow="visible" xlink:href="#f"/>
 </clipPath>
 <path d="m1162.4 592.82c3.8604 20.5-5.6143 39.223-21.161 41.815-15.545 2.5977-31.275-11.914-35.137-32.41-3.8618-20.499 5.6123-39.221 21.159-41.817 15.545-2.5977 31.28 11.916 35.139 32.411z" clip-path="url(#g)" fill="#231F20"/>
 <defs>
  <path id="e" d="m1246.5 590.77s33.861-45.404 58.861-48.05c25.912-2.7407 39.27 14.476 39.27 14.476s-1.6309 26.783-33.799 36.462c-48.714 14.659-64.332-2.8877-64.332-2.8877z"/>
 </defs>
 <clipPath id="h">
  <use overflow="visible" xlink:href="#e"/>
 </clipPath>
 <path d="m1326.8 580.91c-4.4043 20.398-20.521 34.531-35.992 31.568-15.472-2.9668-24.443-21.903-20.035-42.304 4.4082-20.399 20.521-34.532 35.994-31.57 15.473 2.9653 24.441 21.904 20.033 42.306z" clip-path="url(#h)" fill="#231F20"/>
 <path d="m1062.9 544.44c0.28711-0.26611 0.43799-0.38867 0.63477-0.55518l0.54297-0.44189c0.35596-0.28223 0.70557-0.54688 1.0562-0.80566 0.69971-0.51562 1.3989-0.99756 2.104-1.4585 1.4106-0.92041 2.8418-1.7622 4.3013-2.5337 2.916-1.5439 5.9326-2.8262 9.019-3.8584 6.1719-2.0669 12.618-3.1099 18.998-3.1812 6.3774-0.086426 12.701 0.81787 18.679 2.4097 6.0869 1.6494 11.679 3.9551 17.137 6.5107 10.87 5.1538 21.028 11.316 30.896 17.836 9.8457 6.5527 19.401 13.484 28.612 20.825-9.856-6.438-19.992-12.419-30.32-17.967-10.334-5.5107-20.904-10.612-31.745-14.545-5.4023-1.9424-10.935-3.6011-16.334-4.5225-5.5068-0.92041-11-1.1572-16.373-0.57422-5.3633 0.57178-10.572 1.9512-15.387 4.0918-2.4062 1.0684-4.7158 2.3262-6.877 3.7505-1.0806 0.71045-2.1211 1.4673-3.105 2.2539-0.49121 0.39307-0.96777 0.79541-1.416 1.1987l-0.64355 0.59961-0.28613 0.28516c-0.07666 0.079102-0.19727 0.2041-0.17383 0.19434l-9.3203-9.5117z" fill="#E13223"/>
 <path d="m1347.1 527.88c0.019531 0.0029297-0.11914-0.099609-0.20898-0.16553l-0.33008-0.23389-0.73633-0.48535c-0.50977-0.32324-1.043-0.6416-1.5918-0.94824-1.0996-0.61572-2.248-1.1904-3.4258-1.7163-2.3594-1.0532-4.832-1.9282-7.3711-2.5996-5.0762-1.355-10.412-1.9028-15.773-1.6475-5.3594 0.25635-10.75 1.3257-15.971 3.0796-5.1973 1.7539-10.332 4.2515-15.33 7.0298-10.005 5.6079-19.541 12.352-28.77 19.468-9.2158 7.1533-18.166 14.711-26.754 22.68 7.8013-8.75 16.019-17.147 24.594-25.213 8.6035-8.0361 17.561-15.762 27.41-22.587 4.9404-3.3896 10.103-6.5688 15.8-9.123 5.6719-2.5264 11.734-4.3643 18.025-5.2725 6.2871-0.90625 12.781-0.88037 19.162 0.18164 3.1914 0.52539 6.3516 1.3081 9.457 2.3511 1.5527 0.52197 3.0918 1.1123 4.623 1.7847 0.76562 0.33594 1.5293 0.69434 2.2969 1.0825l1.166 0.61377 0.60352 0.34131c0.21875 0.12939 0.38672 0.2251 0.70898 0.43506l-7.5859 10.944z" fill="#E13223"/>
 <path d="m1108.6 523.46l18.296-12.924 18.296 12.924 2.2871 21.538 27.445-6.4619 9.1484 15.078 45.74-36.616-2.2871 36.616 27.446-8.6157 38.878-43.078-6.8608 34.463 32.019-17.231 2.2871 17.231 13.723-8.6152 2.2871 30.154 22.869-30.154s-2.3496 32.649-16.039 56.171c-13.691 23.522-34.275 49.369-34.275 49.369s66.324-56.001 77.76-92.617 21.061-106.67 7.625-160.1c-13.723-54.565-78.447-175.31-240.9-150.77-161.62 24.41-164.67 157.95-164.67 226.88 0 68.925 0 64.617 9.1479 114.16 9.1484 49.54 62.512 89.747 62.512 89.747s8.3862 0.7168-5.3359-46.668c-13.722-47.386-21.187-77.283 0-43.078 4.8306 7.7993 17.754 18.737 26.006 29.025 12.259 15.281 6.0122 33.438 6.0122 33.438s12.4-16.722 6.5283-33.633c-4.791-13.795 1.874-25.195 0.33301-40.676-6.8613-68.925-27.444-74.31-16.009-72.156s29.732 36.617 29.732 36.617z" fill="#E13223"/>
 <path d="m1358.7 614.64c30.73 19.489 37.558 4.6694 53.4 6.7358 11.5 1.5 28.5-10.999 28.5-26s13.013-21.918-0.5-33.5c-7-6-27.5-10-27.5-10s17.91 20.544 13 27.5c-6 8.5-36-6.5-36-6.5s-13.912 5.624-17 10.5c-2.8682 4.5288 22.914 22.874 17.5 32.5-6.9854 12.421-31.4-1.2358-31.4-1.2358z" fill="#E7C1AB"/>
 <path d="m1396.2 565.72c4.6895 8.0605-4.6992 16.827-13.41 13.826-28.373-9.7793-33.881 5.3486-40.25-4.2764-3.6504-5.5088 5.2461-17.164 10.562-19.204 10.256-3.9355 38.408 1.5942 43.098 9.6543z" fill="#EFC7B0"/>
 <path d="m659.24 1090s15.201 9.5781 20.268 11.336c5.1265 1.7798 26.508 11.116 26.508 11.116s13.729-17.418 19.829-26.076c9.8716-14.012 16.971-33.961 16.971-33.961s-15.805-6.0396-20.722-7.7446c-5.2759-1.8301-15.248-10.053-15.248-10.053s-11.396 16.884-22.871 30.154c-6.7544 7.8105-24.735 25.227-24.735 25.227z" fill="#CF9E76"/>
 <path d="m1457.3 686.37s21.531 7.4004 27.518 12.407c6.8379 5.7222 27.359 18.578 27.359 18.578s1.0312-4.3521 10.523-14.417c11.391-12.077 40.984-31.082 40.984-31.082s-11.373-12.854-18.211-18.576c-5.9863-5.0059-23.938-24.333-23.938-24.333s-22.752 12.282-33.377 23.557c-10.258 10.871-30.859 33.866-30.859 33.866z" fill="#CF9E76"/>
 <path d="m1026.6 402.38c-31 2-26.745 99.473-20 136 6.7456 36.528 24 66 24 66s-13.021-57.751-10-94c4-48 62 72 62 72s-49-104-35-130c10.916-20.272 18.238-52.531-21-50z" fill="#BE5527"/>
 <path d="m1392.6 404.38c-7-50-79.89-131.4-115-129-47.146 3.2256-68 109-68 109s-26 5-46.989-0.46484c-47.553-12.381-105.01-71.535-105.01-71.535s56.956 92.971 108 127c18 12 65 34 65 34s-7.1377-78.234 7-82c14.972-3.9883 36.167 32.279 34 72-3 55-34 81-34 81s24.047-10.321 40-44c27-57 16-89 14.138-101.77-3.9307-26.945 37.609-3.4463 37.313 22.766-0.45117 40 16.549 59 16.549 59s-15.777-83.19 11-91c24-7 36 15 36 15z" fill="#BE5527"/>
 <path d="m1350.5 489.27c-10.096 17.344 23.631-4.8906 32.062-31.889 8.4326-26.999 18.624-58.431-22-58-25.938 0.2749 0.03125 72.545-10.062 89.889z" fill="#BE5527"/>
 <path d="m1076.6 451.38c-8.2207 11.877 22.808 48.352 33 60 7 8 1.9805-28.17 15-26 42 7 98 24 98 24s-121.75-93.039-146-58z" fill="#BE5527"/>
 <path d="m909.34 1606.2s132.01-216.02 162.02-267.03c30.003-51.005-153.02 183.02-189.02 228.02s27.003 39.004 27.003 39.004z" fill="#231F20"/>
 <path d="m1056.4 1279.2l-351.03 180.02s-54.006-30.009-24.003-45.01 375.04-135.01 375.04-135.01z" fill="#231F20"/>
 <path d="m1167.4 1426.2l-36.004 195.02s-24.002-24.001-36.003-18.001 72.007-177.02 72.007-177.02z" fill="#231F20"/>
 <path d="m930.34 1249.2s267.03-45.005 285.03-45.005-168.54-7.1045-186.02 6.001c-24.002 18.001-99.01 39.004-99.01 39.004z" fill="#231F20"/>
 <path d="m1689.5 1249.3l83.908 68.874s12.002 39.004-6 48.005-54.006-9.001-54.006-9.001l-23.902-107.88z" fill="#231F20"/>
 <polygon points="705.31 1522.2 1017.3 1318.2 726.32 1528.2" fill="#231F20"/>
 <path d="m1185.4 928.16s49.785 6.3311 81.978 0.13428c29.623-5.7021 59.698-33.24 53.036-24.137-5.7334 7.8345-18.002 21.002-51.005 30.003s-84.008-6.0005-84.008-6.0005z" fill="#CDB322"/>
 <path d="m1489.8 812.8s-11.542 27.18-32.227 41.579c-17.66 12.293-2.3438 9.3774 4 5 12.981-8.958 28.227-46.579 28.227-46.579z" fill="#CDB322"/>
 <path d="m1358.6 865.38s12 8 15 8 4 6 4 6-8 4-12-1-7-13-7-13z" fill="#CDB322"/>
</svg>
